PathFileType	4	(X/Y/Z)	s01c0103.trc
DataRate	CameraRate	NumFrames	NumMarkers	Units	OrigDataRate	OrigDataStartFrame	OrigNumFrames
200	200	4	48	mm	200	0	2000
Frame#	Time	racr			lacr			c7			jug			rlel			rdr			llel			ldr			s2			lic			ric			lasi			rasi			rpsi			lpsi			rgt			lgt			rth1			rth2			rth3			rth4			rlfc			rsh1			rsh2			rsh3			rsh4			rlmal			rmmal			rcal			rtoe			rmt5			lth1			lth2			lth4			lth3			llfc			lsh1			lsh2			lsh3			lsh4			llmal			lmmal			lcal			ltoe			lmt5			SBIKE			LBIKE			RBIKE			
		X1	Y1	Z1	X2	Y2	Z2	X3	Y3	Z3	X4	Y4	Z4	X5	Y5	Z5	X6	Y6	Z6	X7	Y7	Z7	X8	Y8	Z8	X9	Y9	Z9	X10	Y10	Z10	X11	Y11	Z11	X12	Y12	Z12	X13	Y13	Z13	X14	Y14	Z14	X15	Y15	Z15	X16	Y16	Z16	X17	Y17	Z17	X18	Y18	Z18	X19	Y19	Z19	X20	Y20	Z20	X21	Y21	Z21	X22	Y22	Z22	X23	Y23	Z23	X24	Y24	Z24	X25	Y25	Z25	X26	Y26	Z26	X27	Y27	Z27	X28	Y28	Z28	X29	Y29	Z29	X30	Y30	Z30	X31	Y31	Z31	X32	Y32	Z32	X33	Y33	Z33	X34	Y34	Z34	X35	Y35	Z35	X36	Y36	Z36	X37	Y37	Z37	X38	Y38	Z38	X39	Y39	Z39	X40	Y40	Z40	X41	Y41	Z41	X42	Y42	Z42	X43	Y43	Z43	X44	Y44	Z44	X45	Y45	Z45	X46	Y46	Z46	X47	Y47	Z47	X48	Y48	Z48	
0	0.0000	0.000000	0.000000	-0.000000	0.000000	0.000000	-0.000000	445.665588	1372.952637	-271.020691	487.112701	1329.560913	-130.712875	0.000000	0.000000	-0.000000	0.000000	0.000000	-0.000000	0.000000	0.000000	-0.000000	0.000000	0.000000	-0.000000	-84.206100	1162.224731	-247.264877	86.283287	1160.090210	-410.975586	82.660751	1129.100708	-92.768814	74.834274	1106.939819	-396.675812	94.882355	1077.723877	-115.901802	-49.790066	1184.675049	-187.077286	-55.531818	1195.569946	-291.937988	0.312238	1014.197266	-63.199276	13.688516	1052.131714	-457.676056	58.438240	891.051636	-47.532265	106.264702	822.527466	-51.773014	152.485672	745.764160	-67.170387	152.843643	851.840393	-62.551041	185.262833	642.726807	-88.281555	117.283272	544.487976	-57.093246	84.208084	465.341309	-61.854832	41.694550	387.646210	-75.902084	128.276520	446.836212	-98.603508	-12.647028	270.837280	-95.947388	24.912350	287.043396	-175.665802	-60.170105	233.705612	-149.060638	210.732208	227.247055	-138.501602	108.819916	193.453171	-67.726891	113.861252	978.255432	-460.200439	202.718750	970.563721	-465.230957	208.908203	1024.639526	-456.410339	286.411285	955.042175	-450.956573	393.664917	893.482666	-430.305939	316.056854	808.912842	-451.125824	284.080872	728.640930	-442.708496	251.297943	650.796997	-425.867706	337.528809	710.190735	-416.808441	208.471130	530.342285	-405.460052	236.744537	542.723816	-323.011597	159.767639	483.834351	-367.213654	436.714691	500.622986	-369.893402	335.868958	466.387878	-438.120178	0.000000	0.000000	-0.000000	-12.346767	84.944725	-456.260193	-21.696302	81.048134	-55.842293	
1	0.0050	0.000000	0.000000	-0.000000	0.000000	0.000000	-0.000000	445.728210	1372.873169	-271.073669	487.239197	1329.428711	-130.870026	0.000000	0.000000	-0.000000	0.000000	0.000000	-0.000000	0.000000	0.000000	-0.000000	0.000000	0.000000	-0.000000	-84.142830	1162.220703	-247.247345	86.343597	1160.103760	-410.993591	82.707718	1129.053955	-92.734795	74.876335	1106.956421	-396.646393	94.937057	1077.683350	-115.902328	-49.730179	1184.719971	-187.052795	-55.471405	1195.576782	-291.901581	0.360944	1014.173279	-63.188545	13.733284	1052.181152	-457.654358	58.485435	891.033081	-47.515926	106.339836	822.497437	-51.771469	152.549927	745.751770	-67.167358	152.892365	851.832336	-62.539333	185.326050	642.743652	-88.273415	117.343872	544.482239	-57.088921	84.215248	465.356049	-61.866913	41.721554	387.654388	-75.879723	128.330475	446.814331	-98.618118	-12.626752	270.809875	-95.928383	25.000109	287.004456	-175.691147	-60.147518	233.724609	-149.047745	210.737854	227.251373	-138.495438	108.848518	193.457153	-67.726875	113.898521	978.302429	-460.200897	202.752121	970.635254	-465.197968	208.975662	1024.664185	-456.415863	286.435486	955.031067	-450.933502	393.684631	893.486755	-430.287109	316.067871	808.915710	-451.115723	284.095581	728.646301	-442.701721	251.303314	650.808777	-425.855560	337.530304	710.189270	-416.791138	208.472748	530.359009	-405.457001	236.691071	542.699036	-323.017700	159.775391	483.842682	-367.201111	436.712524	500.622986	-369.889221	335.868225	466.391266	-438.111969	0.000000	0.000000	-0.000000	-12.336950	84.922165	-456.268005	-21.704655	81.045868	-55.854553	
2	0.0100	0.000000	0.000000	-0.000000	0.000000	0.000000	-0.000000	445.714233	1372.745728	-271.074341	487.335175	1329.296509	-131.004913	0.000000	0.000000	-0.000000	0.000000	0.000000	-0.000000	0.000000	0.000000	-0.000000	0.000000	0.000000	-0.000000	-84.106575	1162.224243	-247.213577	86.333740	1160.175537	-410.944763	82.750946	1129.026001	-92.700775	74.883133	1106.995117	-396.650696	94.988960	1077.662354	-115.867699	-49.682247	1184.734497	-186.996552	-55.418213	1195.585083	-291.864838	0.401789	1014.145569	-63.175846	13.748486	1052.225098	-457.628998	58.528732	891.005859	-47.529572	106.399078	822.469238	-51.791935	152.589157	745.730103	-67.159286	152.940796	851.812988	-62.543777	185.377945	642.734558	-88.290337	117.389870	544.477844	-57.093578	84.272545	465.369965	-61.856194	41.751167	387.663147	-75.898842	128.333282	446.805450	-98.611687	-12.618072	270.825531	-95.928955	25.142494	286.956024	-175.751648	-60.141003	233.749435	-149.050919	210.765442	227.232010	-138.498291	108.849533	193.447922	-67.733719	113.919601	978.326172	-460.178711	202.778427	970.645203	-465.186157	209.015564	1024.673218	-456.374634	286.468750	955.039551	-450.917480	393.697693	893.483459	-430.266174	316.081055	808.923767	-451.101807	284.113556	728.649597	-442.689911	251.307251	650.818604	-425.857086	337.543671	710.196777	-416.775879	208.472275	530.359436	-405.457764	236.691971	542.702271	-323.019470	159.769638	483.852478	-367.193695	436.709045	500.618927	-369.893799	335.870758	466.395538	-438.106018	0.000000	0.000000	-0.000000	-12.339736	84.920097	-456.270813	-21.715151	81.037758	-55.861504	
3	0.0150	0.000000	0.000000	-0.000000	0.000000	0.000000	-0.000000	445.702789	1372.620972	-271.075439	487.288269	1328.802856	-131.585419	0.000000	0.000000	-0.000000	0.000000	0.000000	-0.000000	0.000000	0.000000	-0.000000	0.000000	0.000000	-0.000000	-84.073700	1162.241455	-247.163696	86.421005	1160.258179	-410.999573	82.806259	1129.008545	-92.676926	74.956955	1106.992310	-396.604858	95.404503	1077.716553	-115.823822	-49.970139	1185.620239	-186.129669	-55.365974	1195.594238	-291.829895	0.427442	1014.021790	-63.129017	13.784219	1052.231201	-457.605347	58.580559	890.996094	-47.494526	106.431473	822.465576	-51.779568	152.706879	745.811523	-67.361389	153.273056	852.213928	-62.079460	185.285095	642.742798	-88.290573	117.429176	544.474426	-57.097950	84.299141	465.369843	-61.861435	41.772022	387.669769	-75.887428	128.376968	446.806488	-98.604095	-12.666399	271.106476	-96.058846	25.271589	286.918579	-175.809753	-60.121555	233.769608	-149.052551	210.642014	227.230911	-138.397568	108.834412	193.458115	-67.727615	113.926163	978.363708	-460.157074	202.812912	970.477112	-465.265778	209.143799	1024.655518	-456.351807	286.484802	955.048157	-450.901306	393.695770	893.488037	-430.245941	316.089935	808.937195	-451.080933	284.119354	728.650879	-442.678528	251.506958	650.889709	-425.826660	338.120575	710.318665	-418.116943	208.475433	530.361816	-405.459442	236.734985	542.681152	-323.021576	159.681961	484.131622	-367.207397	436.715912	500.618744	-369.891052	335.871521	466.403229	-438.098358	0.000000	0.000000	-0.000000	-12.340931	84.928719	-456.260956	-21.710463	81.051506	-55.862045	
